name analog
datacolumns 19
datarows 42
range 0.2135 0.234
endheader
time	ground_force_vx	ground_force_vy	ground_force_vz	ground_force_px	ground_force_py	ground_force_pz	l_ground_force_vx	l_ground_force_vy	l_ground_force_vz	l_ground_force_px	l_ground_force_py	l_ground_force_pz	ground_torque_x	ground_torque_y	ground_torque_z	l_ground_torque_x	l_ground_torque_y	l_ground_torque_z
0.2135	-0.0	-0.0	-0.0	3.779417753219605	40.801570892333984	-404.2620849609375	-3.669804573059082	-25.115877151489254	-321.6329040527344	-0.0	-0.0	-0.0	-0.0	-0.0	-0.0	91982.875	-44763.05859375	441.4321899414063
0.214	-0.0	-0.0	-0.0	3.588709831237793	41.19852066040039	-406.99163818359375	-3.830817699432373	-24.77861976623535	-320.31463623046875	-0.0	-0.0	-0.0	-0.0	-0.0	-0.0	91855.5	-44320.046875	464.3622741699219
0.2145	-0.0	-0.0	-0.0	3.694169759750366	41.6765251159668	-407.9059143066406	-3.830740451812744	-24.890609741210938	-319.9019775390625	-0.0	-0.0	-0.0	-0.0	-0.0	-0.0	91507.1875	-44180.1171875	352.3311767578125
0.215	-0.0	-0.0	-0.0	3.389999389648437	42.304813385009766	-408.2123718261719	-3.9072980880737305	-24.60962677001953	-318.48980712890625	-0.0	-0.0	-0.0	-0.0	-0.0	-0.0	91319.6328125	-43751.109375	341.5441589355469
0.2155	-0.0	-0.0	-0.0	3.563821792602539	42.63630676269531	-410.3950805664063	-3.709797382354736	-24.32463264465332	-318.0937194824219	-0.0	-0.0	-0.0	-0.0	-0.0	-0.0	90850.3671875	-43383.421875	268.8970947265625
0.216	-0.0	-0.0	-0.0	3.053875207901001	42.9449462890625	-412.848388671875	-4.266937255859375	-24.20014190673828	-315.42706298828125	-0.0	-0.0	-0.0	-0.0	-0.0	-0.0	90631.5234375	-43209.0625	209.15272521972656
0.2165	-0.0	-0.0	-0.0	3.2641196250915527	42.99256896972656	-413.2833862304688	-4.660737991333008	-24.03935432434082	-315.633056640625	-0.0	-0.0	-0.0	-0.0	-0.0	-0.0	90059.0625	-43040.03515625	67.402099609375
0.217	-0.0	-0.0	-0.0	2.9439468383789062	42.83504867553711	-413.80181884765625	-4.894941806793213	-24.091327667236328	-314.09307861328125	-0.0	-0.0	-0.0	-0.0	-0.0	-0.0	89820.4765625	-42588.05078125	20.063560485839844
0.2175	-0.0	-0.0	-0.0	2.6448817253112797	43.28066253662109	-417.08447265625	-5.165924072265625	-23.8360595703125	-311.9980163574219	-0.0	-0.0	-0.0	-0.0	-0.0	-0.0	89342.7421875	-42035.47265625	-158.04856872558594
0.218	-0.0	-0.0	-0.0	2.63409686088562	43.58477020263672	-415.4231872558594	-5.265373706817627	-23.919527053833008	-310.5394287109375	-0.0	-0.0	-0.0	-0.0	-0.0	-0.0	88981.1328125	-41634.21875	-100.50389862060548
0.2185	-0.0	-0.0	-0.0	2.51911997795105	43.763031005859375	-416.9991455078125	-5.374823093414307	-23.337726593017575	-308.6091613769531	-0.0	-0.0	-0.0	-0.0	-0.0	-0.0	88338.0625	-41291.85546875	-93.51210021972656
0.219	-0.0	-0.0	-0.0	2.8392276763916016	43.56927108764648	-418.0191650390625	-5.484504222869873	-23.65471649169922	-307.19219970703125	-0.0	-0.0	-0.0	-0.0	-0.0	-0.0	87826.5390625	-40839.66015625	-233.1707763671875
0.2195	-0.0	-0.0	-0.0	2.045850276947021	43.9721565246582	-417.78814697265625	-5.6563873291015625	-23.368803024291992	-306.1839294433594	-0.0	-0.0	-0.0	-0.0	-0.0	-0.0	87371.03125	-40548.359375	-353.6867370605469
0.22	-0.0	-0.0	-0.0	2.051841735839844	44.05194091796875	-417.3125305175781	-5.453764915466309	-23.46283531188965	-303.2685546875	-0.0	-0.0	-0.0	-0.0	-0.0	-0.0	86943.5625	-40178.7421875	-376.1290588378906
0.2205	-0.0	-0.0	-0.0	1.9346226453781128	43.799949645996094	-418.4324951171875	-5.515426158905029	-23.12499237060547	-302.8957824707031	-0.0	-0.0	-0.0	-0.0	-0.0	-0.0	86419.4921875	-39867.3828125	-308.430419921875
0.221	-0.0	-0.0	-0.0	2.5936529636383057	43.858699798583984	-418.225341796875	-5.714205741882324	-23.176836013793945	-300.992919921875	-0.0	-0.0	-0.0	-0.0	-0.0	-0.0	86086.3671875	-39359.3671875	-437.5246887207031
0.2215	-0.0	-0.0	-0.0	1.843064308166504	44.24566268920898	-418.19140625	-6.121044158935547	-22.881555557250977	-300.43963623046875	-0.0	-0.0	-0.0	-0.0	-0.0	-0.0	85650.8046875	-38980.76953125	-435.651123046875
0.222	-0.0	-0.0	-0.0	1.947530746459961	43.9933967590332	-419.6375732421875	-6.240071773529053	-23.07348251342773	-299.4273376464844	-0.0	-0.0	-0.0	-0.0	-0.0	-0.0	85346.6953125	-38881.1796875	-549.3201904296875
0.2225	-0.0	-0.0	-0.0	1.7471163272857666	43.97835159301758	-421.34368896484375	-6.897707462310791	-23.110252380371094	-298.7288818359375	-0.0	-0.0	-0.0	-0.0	-0.0	-0.0	85304.75	-38374.31640625	-693.0485229492188
0.223	-0.0	-0.0	-0.0	2.267382860183716	44.483245849609375	-422.1685791015625	-7.14194917678833	-22.89027976989746	-297.5363464355469	-0.0	-0.0	-0.0	-0.0	-0.0	-0.0	85043.8828125	-37888.75	-873.4189453125
0.2235	-0.0	-0.0	-0.0	1.8883131742477417	44.49831771850586	-423.4037780761719	-7.940114498138428	-23.08867835998535	-298.0892028808594	-0.0	-0.0	-0.0	-0.0	-0.0	-0.0	84593.171875	-37719.7109375	-1121.4132080078125
0.224	-0.0	-0.0	-0.0	1.9402480125427248	44.49087142944336	-423.2568359375	-8.597776412963867	-23.11833381652832	-295.119873046875	-0.0	-0.0	-0.0	-0.0	-0.0	-0.0	84664.1171875	-37097.38671875	-1339.497314453125
0.2245	-0.0	-0.0	-0.0	2.193675756454468	44.79540252685547	-423.9937744140625	-9.462409973144531	-22.926855087280277	-295.5860290527344	-0.0	-0.0	-0.0	-0.0	-0.0	-0.0	84169.984375	-36878.4765625	-1562.480712890625
0.225	-0.0	-0.0	-0.0	1.9626312255859373	44.98829650878906	-423.78466796875	-9.93560791015625	-22.8384952545166	-294.2767639160156	-0.0	-0.0	-0.0	-0.0	-0.0	-0.0	84230.1484375	-36740.1953125	-1770.481689453125
0.2255	-0.0	-0.0	-0.0	1.9480243921279907	44.97358703613281	-426.2561645507813	-10.734004974365234	-22.963638305664062	-293.6667785644531	-0.0	-0.0	-0.0	-0.0	-0.0	-0.0	84016.734375	-36367.703125	-1919.4404296875
0.226	-0.0	-0.0	-0.0	2.3194732666015625	44.89897155761719	-424.54736328125	-11.199992179870604	-22.551130294799805	-295.64312744140625	-0.0	-0.0	-0.0	-0.0	-0.0	-0.0	83912.671875	-36344.43359375	-2129.6142578125
0.2265	-0.0	-0.0	-0.0	2.089209079742432	45.24091339111328	-425.7297668457031	-11.687273979187012	-22.74357414245605	-294.8299255371094	-0.0	-0.0	-0.0	-0.0	-0.0	-0.0	84054.7734375	-36080.75	-2243.7529296875
0.227	-0.0	-0.0	-0.0	1.6575936079025269	45.243690490722656	-426.55029296875	-12.271008491516112	-23.029394149780277	-294.0994873046875	-0.0	-0.0	-0.0	-0.0	-0.0	-0.0	84080.8125	-36220.09765625	-2234.544189453125
0.2275	-0.0	-0.0	-0.0	1.8734207153320312	45.54563903808594	-427.8270568847656	-12.582533836364746	-22.97797203063965	-295.6181030273437	-0.0	-0.0	-0.0	-0.0	-0.0	-0.0	84360.0078125	-36173.34765625	-2456.864990234375
0.228	-0.0	-0.0	-0.0	2.103580951690674	45.52245330810547	-427.2347412109375	-13.063344955444336	-23.177309036254883	-296.42974853515625	-0.0	-0.0	-0.0	-0.0	-0.0	-0.0	84552.671875	-36359.20703125	-2427.549072265625
0.2285	-0.0	-0.0	-0.0	1.9768216609954836	46.21614456176758	-428.16644287109375	-13.27811050415039	-23.45650291442871	-299.8869323730469	-0.0	-0.0	-0.0	-0.0	-0.0	-0.0	85220.0703125	-36525.90625	-2507.1806640625
0.229	-0.0	-0.0	-0.0	2.1503756046295166	45.925575256347656	-427.1621398925781	-13.469862937927246	-23.54478645324707	-300.4728698730469	-0.0	-0.0	-0.0	-0.0	-0.0	-0.0	85885.546875	-37151.7890625	-2469.9541015625
0.2295	-0.0	-0.0	-0.0	1.8969364166259768	46.25868225097656	-427.198974609375	-13.913469314575195	-23.8187313079834	-302.01617431640625	-0.0	-0.0	-0.0	-0.0	-0.0	-0.0	86273.921875	-37331.8828125	-2470.3125
0.23	-0.0	-0.0	-0.0	1.736945629119873	46.04716491699219	-426.9773864746094	-13.838882446289062	-23.656227111816406	-304.9010314941406	-0.0	-0.0	-0.0	-0.0	-0.0	-0.0	87385.46875	-38276.2578125	-2502.933349609375
0.2305	-0.0	-0.0	-0.0	2.2916646003723145	46.18344497680664	-426.2331237792969	-13.544812202453612	-24.22344207763672	-307.25341796875	-0.0	-0.0	-0.0	-0.0	-0.0	-0.0	87949.9921875	-38724.72265625	-2448.237060546875
0.231	-0.0	-0.0	-0.0	2.2441229820251465	46.306270599365234	-426.1235656738281	-13.66584300994873	-24.34905815124512	-309.916748046875	-0.0	-0.0	-0.0	-0.0	-0.0	-0.0	88674.5234375	-39636.9453125	-2270.370849609375
0.2315	-0.0	-0.0	-0.0	1.924917221069336	46.24853897094727	-426.0987243652344	-13.698892593383787	-24.883235931396484	-313.2818298339844	-0.0	-0.0	-0.0	-0.0	-0.0	-0.0	89554.203125	-40103.22265625	-2334.488525390625
0.232	-0.0	-0.0	-0.0	2.3605875968933105	46.385528564453125	-423.6664733886719	-13.470269203186035	-25.283597946166992	-316.5179138183594	-0.0	-0.0	-0.0	-0.0	-0.0	-0.0	90540.8984375	-41045.0078125	-2155.133056640625
0.2325	-0.0	-0.0	-0.0	2.3467764854431152	45.837135314941406	-423.00146484375	-13.33039665222168	-25.966575622558597	-318.82940673828125	-0.0	-0.0	-0.0	-0.0	-0.0	-0.0	91466.3359375	-41878.05078125	-1945.4613037109373
0.233	-0.0	-0.0	-0.0	2.5842013359069824	45.89149856567383	-420.433837890625	-12.77435302734375	-26.07868766784668	-322.6160888671875	-0.0	-0.0	-0.0	-0.0	-0.0	-0.0	92833.546875	-42649.38671875	-1753.3360595703125
0.2335	-0.0	-0.0	-0.0	2.841240167617798	45.59694290161133	-417.6619873046875	-12.76078987121582	-26.95161819458008	-327.5987243652344	-0.0	-0.0	-0.0	-0.0	-0.0	-0.0	94139.5390625	-43553.515625	-1511.6875
0.234	-0.0	-0.0	-0.0	3.0710408687591557	45.39179229736328	-415.4363708496094	-12.470621109008787	-27.620704650878903	-331.8003845214844	-0.0	-0.0	-0.0	-0.0	-0.0	-0.0	95225.6484375	-44766.875	-1375.912841796875
